<svg xmlns="http://www.w3.org/2000/svg" version="1.1" xmlns:xlink="http://www.w3.org/1999/xlink" xmlns:svgjs="http://svgjs.dev/svgjs" width="2000" height="2176" viewBox="0 0 2000 2176"><g transform="matrix(1,0,0,1,-0.24960981416541017,0.8809716599189414)"><svg viewBox="0 0 227 247" data-background-color="#ffffff" preserveAspectRatio="xMidYMid meet" height="2176" width="2000" xmlns="http://www.w3.org/2000/svg" xmlns:xlink="http://www.w3.org/1999/xlink"><g id="tight-bounds" transform="matrix(1,0,0,1,0.028330959478921613,-0.09999999999999432)"><svg viewBox="0 0 226.94333333333336 247.2" height="247.2" width="226.94333333333336"><g><svg viewBox="0 0 226.94333333333336 247.2" height="247.2" width="226.94333333333336"><g><svg viewBox="0 0 226.94333333333336 247.2" height="247.2" width="226.94333333333336"><g id="textblocktransform"><svg viewBox="0 0 226.94333333333336 247.2" height="247.2" width="226.94333333333336" id="textblock"><g><svg viewBox="0 0 226.94333333333336 247.2" height="247.2" width="226.94333333333336"><g transform="matrix(1,0,0,1,0,0)"><svg width="226.94333333333336" viewBox="0.9000000357627869 -35.5 33.04999923706055 36" height="247.2" data-palette-color="#000000"><path d="M17.35 0.5L17.35 0.5Q11.8 0.5 8.2-1 4.6-2.5 2.8-4.95 1-7.4 0.9-10.15L0.9-10.15Q0.9-10.6 1.23-10.93 1.55-11.25 2-11.25L2-11.25 11.5-11.25Q12.3-11.25 12.73-11.03 13.15-10.8 13.65-10.4L13.65-10.4Q14.15-10.05 14.68-9.78 15.2-9.5 15.88-9.38 16.55-9.25 17.35-9.25L17.35-9.25Q19.05-9.25 20.08-9.63 21.1-10 21.1-10.65L21.1-10.65Q21.1-11.25 20.53-11.65 19.95-12.05 18.55-12.38 17.15-12.7 14.65-13L14.65-13Q10.7-13.55 7.8-14.85 4.9-16.15 3.33-18.43 1.75-20.7 1.75-24L1.75-24Q1.75-27.4 3.68-30 5.6-32.6 9.03-34.05 12.45-35.5 17-35.5L17-35.5Q20.75-35.5 23.65-34.52 26.55-33.55 28.55-31.98 30.55-30.4 31.6-28.6 32.65-26.8 32.7-25.15L32.7-25.15Q32.7-24.7 32.38-24.38 32.05-24.05 31.65-24.05L31.65-24.05 21.65-24.05Q20.95-24.05 20.53-24.25 20.1-24.45 19.65-24.85L19.65-24.85Q19.4-25.1 18.73-25.43 18.05-25.75 17-25.75L17-25.75Q15.75-25.75 15.18-25.38 14.6-25 14.6-24.35L14.6-24.35Q14.6-23.9 15.05-23.5 15.5-23.1 16.7-22.8 17.9-22.5 20.15-22.2L20.15-22.2Q25.15-21.6 28.18-20.28 31.2-18.95 32.58-16.75 33.95-14.55 33.95-11.3L33.95-11.3Q33.95-7.65 31.78-5 29.6-2.35 25.85-0.93 22.1 0.5 17.35 0.5Z" opacity="1" transform="matrix(1,0,0,1,0,0)" fill="#000000" class="undefined-text-0" data-fill-palette-color="primary" id="text-0"></path></svg></g></svg></g></svg></g></svg></g><g></g></svg></g><defs></defs></svg><rect width="226.94333333333336" height="247.2" fill="none" stroke="none" visibility="hidden"></rect></g></svg></g></svg>